# xmcd CD database file
#
# Track frame offsets:
#	150
#	10390
#	27687
#	46119
#	58815
#	76014
#	89941
#	109822
#	123734
#	140068
#	153673
#
# Disc length: 2285 seconds
#
# Revision: 0
# Processed by: cddbd v1.5.2PL0 Copyright (c) Steve Scherf et al.
# Submitted via: jetAudio 7
#
DISCID=9e08eb0b
DTITLE=Roland Heart - If These Walls Could Talk
DYEAR=1900
DGENRE=Country
TTITLE0=If These Walls Could Talk
TTITLE1=Lies in the Dark
TTITLE2=Ring of Gold
TTITLE3=The One to Say Goodbye
TTITLE4=Do I Ever Cross Your Mind
TTITLE5=A Heart That I Can Trust
TTITLE6=Wild and Broken
TTITLE7=It Takes a Little Pain
TTITLE8=What You Need to Know
TTITLE9=A Little Bit Crazy
TTITLE10=A Real Good Time (In a Real Bad Way)
EXTD=
EXTT0=
EXTT1=
EXTT2=
EXTT3=
EXTT4=
EXTT5=
EXTT6=
EXTT7=
EXTT8=
EXTT9=
EXTT10=
PLAYORDER=
